<!DOCTYPE svg PUBLIC "-//W3C//DTD SVG 1.1//EN" "http://www.w3.org/Graphics/SVG/1.1/DTD/svg11.dtd">
<!-- Uploaded to: SVG Repo, www.svgrepo.com, Transformed by: SVG Repo Mixer Tools -->
<svg fill="#00a550" height="800px" width="800px" version="1.1" id="Layer_1" xmlns="http://www.w3.org/2000/svg" xmlns:xlink="http://www.w3.org/1999/xlink" viewBox="0 0 512 512" xml:space="preserve">
<g id="SVGRepo_bgCarrier" stroke-width="0"/>
<g id="SVGRepo_tracerCarrier" stroke-linecap="round" stroke-linejoin="round"/>
<g id="SVGRepo_iconCarrier"> <g> <g> <path d="M93.867,46.925C42.112,46.925,0,89.037,0,140.791c0,51.755,42.112,93.867,93.867,93.867 c51.755,0,93.867-42.112,93.867-93.867C187.733,89.037,145.621,46.925,93.867,46.925z M134.033,121.225L74.3,180.958 c-1.664,1.664-3.849,2.5-6.033,2.5s-4.369-0.836-6.033-2.5l-17.067-17.067c-3.337-3.336-3.337-8.73,0-12.066s8.73-3.337,12.066,0 l11.034,11.034l53.7-53.7c3.337-3.337,8.73-3.337,12.066,0S137.37,117.888,134.033,121.225z"/> </g> </g> <g> <g> <path d="M401.067,362.675c-28.237,0-51.2,22.963-51.2,51.2c0,28.237,22.963,51.2,51.2,51.2c28.237,0,51.2-22.963,51.2-51.2 C452.267,385.638,429.303,362.675,401.067,362.675z M401.067,448.009c-18.825,0-34.133-15.309-34.133-34.133 c0-18.825,15.309-34.133,34.133-34.133c18.825,0,34.133,15.309,34.133,34.133C435.2,432.7,419.891,448.009,401.067,448.009z"/> </g> </g> <g> <g> <path d="M110.933,362.675c-28.237,0-51.2,22.963-51.2,51.2c0,28.237,22.963,51.2,51.2,51.2s51.2-22.963,51.2-51.2 C162.133,385.638,139.17,362.675,110.933,362.675z M110.933,448.009c-18.825,0-34.133-15.309-34.133-34.133 c0-18.825,15.309-34.133,34.133-34.133s34.133,15.309,34.133,34.133C145.067,432.7,129.758,448.009,110.933,448.009z"/> </g> </g> <g> <g> <path d="M494.933,320.009h12.8c2.355,0,4.267-1.911,4.267-4.267v-8.533c0-2.355-1.911-4.267-4.267-4.267h-115.2 c-4.71,0-8.533-3.823-8.533-8.533v-81.067c0-2.355-1.911-4.267-4.267-4.267H358.4c-4.71,0-8.533,3.823-8.533,8.533v128H332.8 c0-64.435,0-179.2,0-179.2c0-18.825-15.309-34.133-34.133-34.133H210.27c-2.509-0.23-5.419,1.485-5.419,4.002 c0,0.572,0,1.041,0,1.417c-0.154,57.83-43.059,108.22-100.651,113.459c-34.483,3.14-66.116-9.626-88.422-31.77 c-2.697-2.671-7.245-0.828-7.245,2.97c0,20.224,0,62.797,0,76.348c0,2.355,1.911,4.241,4.267,4.241h12.8 c4.71,0,8.533,3.823,8.533,8.533s-3.823,8.533-8.533,8.533H12.8c-2.355,0-4.267,1.911-4.267,4.267v12.8 c-4.71,0-8.533,3.823-8.533,8.533v43.46c0,1.869,0.828,3.601,2.167,4.907c2.901,2.842,1.442,2.833,36.233,2.799 c3.234,0,7.023-2.424,8.09-5.478c15.13-43.213,71.202-64.043,115.405-25.19c7.159,6.289,10.641,15.334,13.261,24.499 c1.058,3.686,4.412,6.187,8.201,6.187h140.911c4.71,0,8.533-3.823,8.533-8.533c0-0.009,0-0.026,0-0.043c0-0.529,0-10.394,0-25.557 h19.994c2.014,0,3.942-0.751,5.513-2.014c20.881-16.811,49.212-20.079,77.065-7.04c15.232,7.134,24.439,21.683,30.089,37.53 c1.212,3.396,4.429,5.666,8.038,5.666h29.969c4.71,0,8.533-3.823,8.533-8.533v-46.933c0-2.355-1.911-4.267-4.267-4.267h-12.8 c-4.71,0-8.533-3.823-8.533-8.533S490.223,320.009,494.933,320.009z"/> </g> </g> <g> <g> <path d="M511.42,279.543l-38.989-66.074c-1.596-2.705-4.634-4.386-7.919-4.386h-58.914c-2.5,0-4.531,1.911-4.531,4.267v68.267 c0,2.355,2.031,4.267,4.531,4.267H507.46C510.916,285.884,513.101,282.385,511.42,279.543z"/> </g> </g> </g>
</svg>